#Comment line ignore any data following # character 
#Hierarchical Translation and Rotation (.htr) file 
[Header]	
#Header keywords are followed by a single value 
FileType HTR		#Single word string
DataType HTRS		#Translation followed by rotation and scale data
FileVersion 1		#integer
NumSegments 84		#integer
NumFrames 2		#integer
DataFrameRate 30		#integer, data frame rate in this file
EulerRotationOrder ZYX
CalibrationUnits mm
RotationUnits Degrees
GlobalAxisofGravity Y
BoneLengthAxis Y
ScaleFactor 1.00
[SegmentNames&Hierarchy]
#CHILD	PARENT
MASTER GLOBAL
root MASTER
chest root
L_mid_tent01 root
R_mid_tent01 root
spine01 root
Bip01_Neck chest
L_humerus chest
R_humerus chest
weapon_bone chest
Bip01_Head Bip01_Neck
eye_left_bone Bip01_Head
eye_right_bone Bip01_Head
L_forearm L_humerus
L_front_hand L_forearm
L_weapon_bone L_forearm
L_front_hand01_01 L_front_hand
L_front_hand02_01 L_front_hand
L_front_hand03_01 L_front_hand
L_front_hand01_02 L_front_hand01_01
L_front_hand02_02 L_front_hand02_01
L_front_hand03_02 L_front_hand03_01
R_forearm R_humerus
R_front_hand R_forearm
R_weapon_bone R_forearm
R_front_hand01_01 R_front_hand
R_front_hand02_01 R_front_hand
R_front_hand03_01 R_front_hand
R_front_hand01_02 R_front_hand01_01
R_front_hand02_02 R_front_hand02_01
R_front_hand03_02 R_front_hand03_01
null_rope01_connect L_mid_tent01
Rope1_Seg01 null_rope01_connect
Rope1_Seg02 Rope1_Seg01
Rope1_Seg03 Rope1_Seg02
Rope1_Seg04 Rope1_Seg03
Rope1_Seg05 Rope1_Seg04
Rope1_Seg06 Rope1_Seg05
Rope1_Seg07 Rope1_Seg06
Rope1_Seg09 Rope1_Seg07
L_mid_hand01 Rope1_Seg09
L_mid_hand02 Rope1_Seg09
L_mid_hand03 Rope1_Seg09
null_rope02_connect R_mid_tent01
Rope2_Seg01 null_rope02_connect
Rope2_Seg02 Rope2_Seg01
Rope2_Seg03 Rope2_Seg02
Rope2_Seg04 Rope2_Seg03
Rope2_Seg05 Rope2_Seg04
Rope2_Seg06 Rope2_Seg05
Rope2_Seg07 Rope2_Seg06
Rope2_Seg09 Rope2_Seg07
R_mid_hand01 Rope2_Seg09
R_mid_hand02 Rope2_Seg09
R_mid_hand03 Rope2_Seg09
spine02 spine01
spine03 spine02
pelvis spine03
null_rope03_connect pelvis
null_rope04_connect pelvis
Rope3_Seg01 null_rope03_connect
Rope3_Seg02 Rope3_Seg01
Rope3_Seg03 Rope3_Seg02
Rope3_Seg04 Rope3_Seg03
Rope3_Seg05 Rope3_Seg04
Rope3_Seg06 Rope3_Seg05
Rope3_Seg07 Rope3_Seg06
Rope3_Seg08 Rope3_Seg07
Rope3_Seg09 Rope3_Seg08
R_rear_hand01 Rope3_Seg09
R_rear_hand02 Rope3_Seg09
R_rear_hand03 Rope3_Seg09
Rope4_Seg01 null_rope04_connect
Rope4_Seg02 Rope4_Seg01
Rope4_Seg03 Rope4_Seg02
Rope4_Seg04 Rope4_Seg03
Rope4_Seg05 Rope4_Seg04
Rope4_Seg06 Rope4_Seg05
Rope4_Seg07 Rope4_Seg06
Rope4_Seg08 Rope4_Seg07
Rope4_Seg09 Rope4_Seg08
L_rear_hand01 Rope4_Seg09
L_rear_hand02 Rope4_Seg09
L_rear_hand03 Rope4_Seg09
[BasePosition]
#SegmentName Tx, Ty, Tz, Rx, Ry, Rz, BoneLength
MASTER 0.000000 0.000000 0.000000 -90.000000 0.000000 0.000000 10.000000 
root 0.000000 0.000000 0.000000 0.000000 0.000000 0.000000 10.000000 
chest 0.000000 0.000000 0.000000 0.000000 0.000000 0.000000 10.000000 
L_mid_tent01 0.000000 0.000000 0.000000 0.000000 0.000000 0.000000 10.000000 
R_mid_tent01 0.000000 0.000000 0.000000 0.000000 0.000000 0.000000 10.000000 
spine01 0.000000 0.000000 0.000000 0.000000 0.000000 0.000000 10.000000 
Bip01_Neck 0.000000 0.000000 0.000000 0.000000 0.000000 0.000000 10.000000 
L_humerus 0.000000 0.000000 0.000000 0.000000 0.000000 0.000000 10.000000 
R_humerus 0.000000 0.000000 0.000000 0.000000 0.000000 0.000000 10.000000 
weapon_bone 0.000000 0.000000 0.000000 0.000000 0.000000 0.000000 10.000000 
Bip01_Head 0.000000 0.000000 0.000000 0.000000 0.000000 0.000000 10.000000 
eye_left_bone 0.000000 0.000000 0.000000 0.000000 0.000000 0.000000 10.000000 
eye_right_bone 0.000000 0.000000 0.000000 0.000000 0.000000 0.000000 10.000000 
L_forearm 0.000000 0.000000 0.000000 0.000000 0.000000 0.000000 10.000000 
L_front_hand 0.000000 0.000000 0.000000 0.000000 0.000000 0.000000 10.000000 
L_weapon_bone 0.000000 0.000000 0.000000 0.000000 0.000000 0.000000 10.000000 
L_front_hand01_01 0.000000 0.000000 0.000000 0.000000 0.000000 0.000000 10.000000 
L_front_hand02_01 0.000000 0.000000 0.000000 0.000000 0.000000 0.000000 10.000000 
L_front_hand03_01 0.000000 0.000000 0.000000 0.000000 0.000000 0.000000 10.000000 
L_front_hand01_02 0.000000 0.000000 0.000000 0.000000 0.000000 0.000000 10.000000 
L_front_hand02_02 0.000000 0.000000 0.000000 0.000000 0.000000 0.000000 10.000000 
L_front_hand03_02 0.000000 0.000000 0.000000 0.000000 0.000000 0.000000 10.000000 
R_forearm 0.000000 0.000000 0.000000 0.000000 0.000000 0.000000 10.000000 
R_front_hand 0.000000 0.000000 0.000000 0.000000 0.000000 0.000000 10.000000 
R_weapon_bone 0.000000 0.000000 0.000000 0.000000 0.000000 0.000000 10.000000 
R_front_hand01_01 0.000000 0.000000 0.000000 0.000000 0.000000 0.000000 10.000000 
R_front_hand02_01 0.000000 0.000000 0.000000 0.000000 0.000000 0.000000 10.000000 
R_front_hand03_01 0.000000 0.000000 0.000000 0.000000 0.000000 0.000000 10.000000 
R_front_hand01_02 0.000000 0.000000 0.000000 0.000000 0.000000 0.000000 10.000000 
R_front_hand02_02 0.000000 0.000000 0.000000 0.000000 0.000000 0.000000 10.000000 
R_front_hand03_02 0.000000 0.000000 0.000000 0.000000 0.000000 0.000000 10.000000 
null_rope01_connect 0.000000 0.000000 0.000000 0.000000 0.000000 0.000000 10.000000 
Rope1_Seg01 0.000000 0.000000 0.000000 0.000000 0.000000 0.000000 10.000000 
Rope1_Seg02 0.000000 0.000000 0.000000 0.000000 0.000000 0.000000 10.000000 
Rope1_Seg03 0.000000 0.000000 0.000000 0.000000 0.000000 0.000000 10.000000 
Rope1_Seg04 0.000000 0.000000 0.000000 0.000000 0.000000 0.000000 10.000000 
Rope1_Seg05 0.000000 0.000000 0.000000 0.000000 0.000000 0.000000 10.000000 
Rope1_Seg06 0.000000 0.000000 0.000000 0.000000 0.000000 0.000000 10.000000 
Rope1_Seg07 0.000000 0.000000 0.000000 0.000000 0.000000 0.000000 10.000000 
Rope1_Seg09 0.000000 0.000000 0.000000 0.000000 0.000000 0.000000 10.000000 
L_mid_hand01 0.000000 0.000000 0.000000 0.000000 0.000000 0.000000 10.000000 
L_mid_hand02 0.000000 0.000000 0.000000 0.000000 0.000000 0.000000 10.000000 
L_mid_hand03 0.000000 0.000000 0.000000 0.000000 0.000000 0.000000 10.000000 
null_rope02_connect 0.000000 0.000000 0.000000 0.000000 0.000000 0.000000 10.000000 
Rope2_Seg01 0.000000 0.000000 0.000000 0.000000 0.000000 0.000000 10.000000 
Rope2_Seg02 0.000000 0.000000 0.000000 0.000000 0.000000 0.000000 10.000000 
Rope2_Seg03 0.000000 0.000000 0.000000 0.000000 0.000000 0.000000 10.000000 
Rope2_Seg04 0.000000 0.000000 0.000000 0.000000 0.000000 0.000000 10.000000 
Rope2_Seg05 0.000000 0.000000 0.000000 0.000000 0.000000 0.000000 10.000000 
Rope2_Seg06 0.000000 0.000000 0.000000 0.000000 0.000000 0.000000 10.000000 
Rope2_Seg07 0.000000 0.000000 0.000000 0.000000 0.000000 0.000000 10.000000 
Rope2_Seg09 0.000000 0.000000 0.000000 0.000000 0.000000 0.000000 10.000000 
R_mid_hand01 0.000000 0.000000 0.000000 0.000000 0.000000 0.000000 10.000000 
R_mid_hand02 0.000000 0.000000 0.000000 0.000000 0.000000 0.000000 10.000000 
R_mid_hand03 0.000000 0.000000 0.000000 0.000000 0.000000 0.000000 10.000000 
spine02 0.000000 0.000000 0.000000 0.000000 0.000000 0.000000 10.000000 
spine03 0.000000 0.000000 0.000000 0.000000 0.000000 0.000000 10.000000 
pelvis 0.000000 0.000000 0.000000 0.000000 0.000000 0.000000 10.000000 
null_rope03_connect 0.000000 0.000000 0.000000 0.000000 0.000000 0.000000 10.000000 
null_rope04_connect 0.000000 0.000000 0.000000 0.000000 0.000000 0.000000 10.000000 
Rope3_Seg01 0.000000 0.000000 0.000000 0.000000 0.000000 0.000000 10.000000 
Rope3_Seg02 0.000000 0.000000 0.000000 0.000000 0.000000 0.000000 10.000000 
Rope3_Seg03 0.000000 0.000000 0.000000 0.000000 0.000000 0.000000 10.000000 
Rope3_Seg04 0.000000 0.000000 0.000000 0.000000 0.000000 0.000000 10.000000 
Rope3_Seg05 0.000000 0.000000 0.000000 0.000000 0.000000 0.000000 10.000000 
Rope3_Seg06 0.000000 0.000000 0.000000 0.000000 0.000000 0.000000 10.000000 
Rope3_Seg07 0.000000 0.000000 0.000000 0.000000 0.000000 0.000000 10.000000 
Rope3_Seg08 0.000000 0.000000 0.000000 0.000000 0.000000 0.000000 10.000000 
Rope3_Seg09 0.000000 0.000000 0.000000 0.000000 0.000000 0.000000 10.000000 
R_rear_hand01 0.000000 0.000000 0.000000 0.000000 0.000000 0.000000 10.000000 
R_rear_hand02 0.000000 0.000000 0.000000 0.000000 0.000000 0.000000 10.000000 
R_rear_hand03 0.000000 0.000000 0.000000 0.000000 0.000000 0.000000 10.000000 
Rope4_Seg01 0.000000 0.000000 0.000000 0.000000 0.000000 0.000000 10.000000 
Rope4_Seg02 0.000000 0.000000 0.000000 0.000000 0.000000 0.000000 10.000000 
Rope4_Seg03 0.000000 0.000000 0.000000 0.000000 0.000000 0.000000 10.000000 
Rope4_Seg04 0.000000 0.000000 0.000000 0.000000 0.000000 0.000000 10.000000 
Rope4_Seg05 0.000000 0.000000 0.000000 0.000000 0.000000 0.000000 10.000000 
Rope4_Seg06 0.000000 0.000000 0.000000 0.000000 0.000000 0.000000 10.000000 
Rope4_Seg07 0.000000 0.000000 0.000000 0.000000 0.000000 0.000000 10.000000 
Rope4_Seg08 0.000000 0.000000 0.000000 0.000000 0.000000 0.000000 10.000000 
Rope4_Seg09 0.000000 0.000000 0.000000 0.000000 0.000000 0.000000 10.000000 
L_rear_hand01 0.000000 0.000000 0.000000 0.000000 0.000000 0.000000 10.000000 
L_rear_hand02 0.000000 0.000000 0.000000 0.000000 0.000000 0.000000 10.000000 
L_rear_hand03 0.000000 0.000000 0.000000 0.000000 0.000000 0.000000 10.000000 
#Beginning of Data. Separated by tabs
#Fr	Tx	Ty	Tz	Rx	Ry	Rz	SF
[MASTER]
16 0.000000 0.000000 0.000000 0.001660 0.001660 0.001660 0.000000
17 0.000000 0.000000 0.000000 0.001660 0.001660 0.001660 0.000000
[root]
16 -36.096798 -54.052250 1502.402710 -86.380089 -27.544558 -90.613640 1503.807861
17 -35.453995 -54.461067 1502.323730 -86.304840 -29.815008 -89.434006 1503.728638
[chest]
16 -84.512650 -34.090519 0.000000 -12.381641 -30.091206 170.583664 91.129311
17 -84.512650 -34.090519 0.000000 -13.422125 -30.831400 171.979797 91.129311
[L_mid_tent01]
16 27.299156 22.179029 -249.918701 3.069485 23.615200 80.299721 252.381683
17 27.299158 22.179026 -249.918701 3.428457 30.233583 80.794510 252.381683
[R_mid_tent01]
16 23.228794 24.509907 226.238495 164.309143 -31.419022 81.181381 228.744751
17 23.228794 24.509907 226.238495 162.629303 -39.773777 84.422073 228.744751
[spine01]
16 -0.361383 -0.195265 0.000000 0.002062 0.001122 32.879829 0.410763
17 -0.361383 -0.195265 0.000000 0.002062 0.001122 32.879829 0.410763
[Bip01_Neck]
16 165.484543 71.581718 0.000119 176.643677 -1.657967 43.431911 180.302734
17 165.484543 71.581718 0.000119 176.643677 -1.657967 43.431911 180.302734
[L_humerus]
16 -13.983130 -135.272980 -120.471481 163.686798 25.239710 -70.891647 181.680161
17 -13.983130 -135.272980 -120.471481 164.719818 29.405910 -73.832382 181.680161
[R_humerus]
16 -13.983309 -135.273102 125.287651 -174.013260 -7.943002 -93.351730 184.909012
17 -13.983309 -135.273102 125.287651 -172.785568 -10.038025 -96.468872 184.909012
[weapon_bone]
16 235.964890 -300.705902 0.000000 0.000000 -89.951546 -128.212341 382.234833
17 235.964890 -300.705902 0.000000 0.000000 -89.951546 -128.212341 382.234833
[Bip01_Head]
16 213.444199 185.715378 11.776935 32.094398 3.053576 -43.894035 283.173645
17 213.444199 185.715378 11.776935 31.759096 3.070854 -43.892879 283.173645
[eye_left_bone]
16 -24.626970 125.451866 -64.772606 0.000000 -90.000000 -99.840431 143.318359
17 -24.626970 125.451866 -64.772606 0.000000 -90.000000 -99.840431 143.318359
[eye_right_bone]
16 -24.626970 125.451866 64.327362 0.000000 -89.965736 80.156380 143.117676
17 -24.626970 125.451866 64.327362 0.000000 -89.965736 80.156380 143.117676
[L_forearm]
16 322.776093 0.000000 -0.000119 0.000396 -0.002314 -109.419975 322.776093
17 322.776093 0.000000 -0.000119 0.000396 -0.002314 -109.419975 322.776093
[L_front_hand]
16 241.149185 -0.042021 -3.300071 -178.667953 -1.835447 -27.422350 241.171753
17 241.149185 -0.042021 -3.300071 -178.667953 -1.835447 -27.422350 241.171753
[L_weapon_bone]
16 156.183838 0.000000 0.000000 0.000014 0.000007 0.000001 156.183838
17 156.183838 0.000000 0.000000 0.000014 0.000007 0.000001 156.183838
[L_front_hand01_01]
16 86.095154 20.947098 -0.655860 -0.280373 -0.529283 65.613800 88.609184
17 86.095154 20.947098 -0.655860 -0.282467 -0.528169 66.067474 88.609184
[L_front_hand02_01]
16 86.935165 -11.437475 24.513514 141.458649 -54.658344 -46.027485 91.046425
17 86.935165 -11.437475 24.513514 141.960785 -54.937954 -46.642345 91.046425
[L_front_hand03_01]
16 86.637497 -14.123976 -20.424902 -141.832764 52.885189 -48.080185 90.126129
17 86.637497 -14.123976 -20.424902 -142.303543 53.163303 -48.671032 90.126129
[L_front_hand01_02]
16 71.020905 -0.000179 0.000030 0.000315 -0.002326 -105.400543 71.020905
17 71.020905 -0.000179 0.000030 0.000315 -0.002326 -105.421257 71.020905
[L_front_hand02_02]
16 71.020927 -0.000119 0.000060 0.000315 -0.002326 -105.400543 71.020927
17 71.020927 -0.000119 0.000060 0.000315 -0.002326 -105.421257 71.020927
[L_front_hand03_02]
16 71.020905 -0.000060 0.000060 0.000315 -0.002326 -105.400543 71.020905
17 71.020905 -0.000060 0.000060 0.000315 -0.002326 -105.421257 71.020905
[R_forearm]
16 322.776428 -0.000060 0.000030 0.202103 0.065158 -108.062805 322.776428
17 322.776428 -0.000060 0.000030 0.202103 0.065158 -108.062805 322.776428
[R_front_hand]
16 238.847015 -0.006795 2.210259 -2.635298 -10.645461 -26.312506 238.857239
17 238.847015 -0.006795 2.210259 -2.635298 -10.645461 -26.312506 238.857239
[R_weapon_bone]
16 155.664093 0.002503 -0.000030 0.003487 0.001180 -90.988930 155.664078
17 155.664093 0.002503 -0.000030 0.003487 0.001180 -90.988930 155.664078
[R_front_hand01_01]
16 87.624611 14.231146 22.918642 -138.672287 -52.939835 42.677601 91.683487
17 87.624611 14.231146 22.918642 -139.271561 -53.333107 43.426708 91.683487
[R_front_hand02_01]
16 89.356956 14.367283 -19.491137 139.502045 51.377892 45.363930 92.579636
17 89.356956 14.367283 -19.491137 140.080994 51.767307 46.104946 92.579636
[R_front_hand03_01]
16 87.286232 -22.307278 -0.143439 0.064897 -0.451663 -63.182877 90.091743
17 87.286232 -22.307278 -0.143439 0.071479 -0.448702 -63.787704 90.091743
[R_front_hand01_02]
16 71.020905 0.000060 0.000119 0.002323 -0.000334 106.381714 71.020905
17 71.020905 0.000060 0.000119 0.002323 -0.000334 106.381714 71.020905
[R_front_hand02_02]
16 71.020844 -0.000030 -0.000119 0.002323 -0.000334 106.381714 71.020836
17 71.020844 -0.000030 -0.000119 0.002323 -0.000334 106.381714 71.020836
[R_front_hand03_02]
16 71.020905 0.000000 0.000030 0.002323 -0.000334 106.381714 71.020905
17 71.020905 0.000000 0.000030 0.002323 -0.000334 106.381714 71.020905
[null_rope01_connect]
16 328.732483 0.000000 -0.000238 -131.178146 -69.165054 168.765411 328.732483
17 328.732483 0.000000 -0.000238 -132.985931 -63.534107 172.744492 328.732483
[Rope1_Seg01]
16 -0.000029 0.000019 0.000076 -35.190407 35.705021 -57.344501 0.000084
17 -0.000028 0.000018 0.000071 -34.320034 33.909344 -58.163139 0.000079
[Rope1_Seg02]
16 139.999863 -0.000179 0.000000 0.276456 1.084318 -1.801060 139.999863
17 139.999863 -0.000179 0.000000 -0.214201 1.349855 -1.108795 139.999863
[Rope1_Seg03]
16 139.999924 0.000060 -0.000060 0.446363 1.545447 -2.609070 139.999924
17 139.999924 0.000060 -0.000060 -0.369102 2.034276 -1.657080 139.999924
[Rope1_Seg04]
16 139.999924 -0.000060 -0.000119 -1.097455 5.883892 -5.464806 139.999924
17 139.999924 -0.000060 -0.000119 -4.202536 8.290733 -3.712436 139.999924
[Rope1_Seg05]
16 139.999832 0.000119 -0.000060 6.513888 -1.147155 -6.397964 139.999832
17 139.999832 0.000119 -0.000060 6.983771 -4.060540 -4.466411 139.999832
[Rope1_Seg06]
16 139.999954 0.000119 -0.000060 5.639977 -8.180825 1.206493 139.999954
17 139.999954 0.000119 -0.000060 6.519130 -8.964882 -0.067710 139.999954
[Rope1_Seg07]
16 139.999985 0.000060 0.000000 1.869859 -2.404922 -0.151382 139.999985
17 139.999985 0.000060 0.000000 2.069607 -3.012774 -0.181421 139.999985
[Rope1_Seg09]
16 121.602913 0.000119 -0.000089 -89.793175 -1.359789 0.847147 121.602913
17 121.602913 0.000119 -0.000089 -89.793175 -1.359789 0.847147 121.602913
[L_mid_hand01]
16 103.859421 1.038730 8.195221 122.214622 -62.281231 -29.682964 104.187431
17 103.859421 1.038730 8.195221 126.075401 -65.098549 -33.991913 104.187431
[L_mid_hand02]
16 105.572853 -4.139662 -10.864139 -163.055801 41.815437 -64.846191 106.211075
17 105.572853 -4.139662 -10.864139 -166.035263 42.723965 -69.273842 106.211075
[L_mid_hand03]
16 104.641464 17.579376 -3.913581 -8.059158 17.002197 68.062881 106.179977
17 104.641464 17.579376 -3.913581 -7.014418 17.452778 71.596474 106.179977
[null_rope02_connect]
16 328.732849 0.000179 -0.000119 -118.576508 52.846096 19.828650 328.732849
17 328.732849 0.000179 -0.000119 -120.206619 43.518215 17.432592 328.732849
[Rope2_Seg01]
16 -0.000038 0.000101 0.000000 138.261719 58.235233 -94.116508 0.000108
17 -0.000046 0.000100 0.000000 138.250763 58.055489 -94.010849 0.000110
[Rope2_Seg02]
16 139.999741 -0.000060 -0.000119 -3.227776 -1.089560 5.749513 139.999756
17 139.999741 -0.000060 -0.000119 -2.009089 -0.556940 3.420074 139.999756
[Rope2_Seg03]
16 140.000107 0.000030 0.000000 -3.961188 -2.451176 8.712129 140.000107
17 140.000107 0.000030 0.000000 -2.843073 -1.184686 5.480280 140.000107
[Rope2_Seg04]
16 139.999802 0.000000 -0.000060 -5.371249 -11.474392 18.574411 139.999802
17 139.999802 0.000000 -0.000060 -5.012050 -7.527709 14.037057 139.999802
[Rope2_Seg05]
16 139.999985 -0.000060 0.000119 -1.875132 14.632630 3.995789 139.999985
17 139.999985 -0.000060 0.000119 -4.040571 12.459021 7.596739 139.999985
[Rope2_Seg06]
16 139.999893 -0.000030 -0.000119 -3.795350 19.498838 -3.075894 139.999893
17 139.999893 -0.000030 -0.000119 -3.431297 10.109220 2.122258 139.999893
[Rope2_Seg07]
16 139.999893 0.000060 -0.000060 -3.654701 7.996638 0.683628 139.999893
17 139.999893 0.000060 -0.000060 -2.685518 4.271851 2.282835 139.999893
[Rope2_Seg09]
16 121.338966 0.000089 -0.000060 33.793236 -1.359788 -0.847141 121.338966
17 121.338966 0.000089 -0.000060 33.793236 -1.359788 -0.847141 121.338966
[R_mid_hand01]
16 104.680779 11.144459 -10.335981 -32.057350 37.073116 46.635818 105.778534
17 104.680779 11.144459 -10.335981 -28.450209 39.729855 52.441807 105.778534
[R_mid_hand02]
16 104.070427 2.443552 8.231699 66.850014 -50.884758 18.890066 104.424065
17 104.070427 2.443552 8.231699 63.903580 -55.672924 22.558943 104.424065
[R_mid_hand03]
16 106.028137 -11.221827 -5.996406 -171.959641 13.662919 -56.404911 106.788818
17 106.028137 -11.221827 -5.996406 -173.263687 14.341302 -61.789295 106.788818
[spine02]
16 129.756927 0.001550 0.000119 0.360061 -4.044797 -12.915058 129.756927
17 129.756927 0.001550 0.000119 0.360061 -4.044797 -12.915058 129.756927
[spine03]
16 78.614090 0.081558 -4.898994 1.896495 3.831288 16.473045 78.766632
17 78.614090 0.081563 -4.898993 1.896495 3.831288 16.473045 78.766632
[pelvis]
16 169.435242 0.051022 0.000000 -0.060465 -0.180225 14.087930 169.435257
17 169.435242 0.051022 0.000000 -0.060465 -0.180225 14.087930 169.435257
[null_rope03_connect]
16 -1.257226 -2.466202 137.391083 15.844036 -85.506645 51.193916 137.418976
17 -1.257226 -2.466202 137.391083 31.170101 -84.959351 38.093327 137.418976
[null_rope04_connect]
16 -1.259640 -2.480268 -137.844437 15.844036 -85.506645 51.193916 137.872513
17 -1.259640 -2.480268 -137.844437 31.170101 -84.959351 38.093327 137.872513
[Rope3_Seg01]
16 0.000010 0.000019 -0.000076 -130.421432 14.423347 -74.790909 0.000079
17 0.000010 0.000018 -0.000071 -130.933670 6.739691 -79.622734 0.000074
[Rope3_Seg02]
16 139.999924 -0.000119 0.000060 -1.470237 3.286477 23.393543 139.999924
17 139.999924 -0.000119 0.000060 -3.174001 -1.830891 21.182068 139.999924
[Rope3_Seg03]
16 139.999924 -0.000119 0.000119 -3.188335 2.501998 14.655527 139.999924
17 139.999924 -0.000119 0.000119 -3.076361 0.651392 12.650942 139.999924
[Rope3_Seg04]
16 139.999924 0.000119 0.000000 -3.274274 1.379808 8.957125 139.999924
17 139.999924 0.000119 0.000000 -2.059432 -0.657574 4.634826 139.999924
[Rope3_Seg05]
16 139.999924 -0.000238 0.000060 -0.523062 -1.137961 -0.453134 139.999924
17 139.999924 -0.000238 0.000060 -0.522638 -3.002781 -2.463498 139.999924
[Rope3_Seg06]
16 139.999893 -0.000119 -0.000060 1.739139 -3.064747 -7.303525 139.999893
17 139.999893 -0.000119 -0.000060 0.776719 -5.547664 -8.297442 139.999893
[Rope3_Seg07]
16 139.999771 0.000060 -0.000119 2.661939 -5.618785 -13.791875 139.999771
17 139.999771 0.000060 -0.000119 0.625301 -4.878828 -6.369479 139.999771
[Rope3_Seg08]
16 139.999985 -0.000060 0.000000 1.087147 -3.755046 -7.387627 139.999985
17 139.999985 -0.000060 0.000000 0.541888 -3.301247 -3.799709 139.999985
[Rope3_Seg09]
16 90.185997 -0.000179 -0.000060 89.793228 -1.359877 -0.847183 90.185997
17 90.185997 -0.000179 -0.000060 89.793228 -1.359877 -0.847183 90.185997
[R_rear_hand01]
16 103.366196 -6.073594 -10.757982 -169.706436 22.536156 -54.046982 104.101845
17 103.366196 -6.073594 -10.757982 -171.885513 23.373785 -59.632885 104.101845
[R_rear_hand02]
16 100.509819 12.039542 -7.992327 -24.637733 30.906170 51.254921 101.543350
17 100.509819 12.039542 -7.992327 -21.647255 32.954239 56.905464 101.543350
[R_rear_hand03]
16 101.539970 5.215704 5.435467 80.293877 -53.997543 11.741186 101.819031
17 101.539970 5.215704 5.435467 78.870155 -59.127991 13.449200 101.819031
[Rope4_Seg01]
16 -0.000000 0.000038 -0.000191 37.356983 14.724068 -137.910461 0.000195
17 -0.000001 0.000036 -0.000193 42.272160 6.817217 -135.523788 0.000197
[Rope4_Seg02]
16 139.999985 0.000060 0.000119 3.553816 23.849028 14.194620 139.999985
17 139.999985 0.000060 0.000119 1.762166 25.065516 10.113437 139.999985
[Rope4_Seg03]
16 139.999924 0.000000 -0.000238 2.599108 24.024212 14.314306 139.999924
17 139.999924 0.000000 -0.000238 2.824960 25.288027 11.099511 139.999924
[Rope4_Seg04]
16 139.999985 0.000000 0.000119 -0.436190 18.704861 12.047200 139.999985
17 139.999985 0.000000 0.000119 1.452148 18.344034 8.841639 139.999985
[Rope4_Seg05]
16 139.999802 -0.000060 -0.000119 0.072157 3.661416 1.740848 139.999802
17 139.999802 -0.000060 -0.000119 1.481332 3.678180 0.311507 139.999802
[Rope4_Seg06]
16 139.999924 0.000000 0.000060 2.715660 -3.268545 -3.847720 139.999924
17 139.999924 0.000000 0.000060 2.828905 -3.537333 -4.472084 139.999924
[Rope4_Seg07]
16 139.999802 0.000000 0.000000 4.576121 -10.946844 -9.925014 139.999802
17 139.999802 0.000000 0.000000 3.218553 -8.246671 -7.591855 139.999802
[Rope4_Seg08]
16 139.999924 0.000000 0.000119 0.230940 -6.809577 -5.766592 139.999924
17 139.999924 0.000000 0.000119 -0.185929 -3.255734 -3.674772 139.999924
[Rope4_Seg09]
16 90.185791 0.000060 0.000060 -135.617828 2.228885 0.850567 90.185791
17 90.185791 0.000060 0.000060 -135.617828 2.228885 0.850567 90.185791
[L_rear_hand01]
16 101.696655 -8.392275 -7.654577 -16.606979 -35.526840 114.151619 102.329041
17 101.696655 -8.392275 -7.654577 -14.676040 -36.272415 110.857796 102.329041
[L_rear_hand02]
16 102.726799 -1.568258 5.773216 75.446785 66.761177 162.720428 102.900848
17 102.726799 -1.568258 5.773216 73.610291 69.437737 160.740738 102.900848
[L_rear_hand03]
16 104.552910 9.721220 -10.420293 -175.325211 -24.244322 -111.864204 105.519653
17 104.552910 9.721220 -10.420293 -176.571304 -24.441328 -108.830574 105.519653
